<?xml version="1.0" encoding="UTF-8" standalone="no"?>
<!DOCTYPE svg PUBLIC "-//W3C//DTD SVG 1.1//EN" "http://www.w3.org/Graphics/SVG/1.1/DTD/svg11.dtd">

<!-- Created with Vectornator (http://vectornator.io/) -->
<svg height="100%" stroke-miterlimit="10" style="fill-rule:nonzero;clip-rule:evenodd;stroke-linecap:round;stroke-linejoin:round;" version="1.1" viewBox="0 0 843 583" width="100%" xml:space="preserve" xmlns="http://www.w3.org/2000/svg" xmlns:vectornator="http://vectornator.io" xmlns:xlink="http://www.w3.org/1999/xlink">
<metadata>
<vectornator:setting key="IsTimeLapseWatermarkDisabled" value="false"/>
<vectornator:setting key="UndoHistoryDisabled" value="true"/>
<vectornator:setting key="VNDimensionsVisible" value="true"/>
<vectornator:setting key="VNSnapToGuides" value="true"/>
<vectornator:setting key="WDCMYKEnabledKey" value="false"/>
<vectornator:setting key="WDDisplayWhiteBackground" value="false"/>
<vectornator:setting key="WDDynamicGuides" value="false"/>
<vectornator:setting key="WDGuidesVisible" value="true"/>
<vectornator:setting key="WDIsolateActiveLayer" value="false"/>
<vectornator:setting key="WDOutlineMode" value="false"/>
<vectornator:setting key="WDRulersVisible" value="true"/>
<vectornator:setting key="WDSnapToEdges" value="false"/>
<vectornator:setting key="WDSnapToGrid" value="false"/>
<vectornator:setting key="WDSnapToPoints" value="false"/>
<vectornator:setting key="WDUnits" value="Points"/>
</metadata>
<defs/>
<g id="Ebene-2-kopieren" vectornator:layerName="Ebene 2 kopieren">
<path d="M312.996 410.187C312.314 410.78 311.586 409.39 311.187 408.851C309.843 407.032 308.804 404.054 308.333 401.884C307.955 400.145 306.592 399.767 305.505 398.549C305.097 398.092 304.958 397.499 304.629 396.999C304.055 396.126 303.262 395.481 302.536 394.766C301.634 393.877 301.218 392.417 300.4 391.426C299.714 390.594 298.861 389.966 298.307 389.02C296.953 386.708 296.011 384.115 294.551 381.817C291.209 376.558 287.593 371.567 284.744 365.975C283.967 364.45 283.605 362.954 283.015 361.387C282.739 360.655 282.077 360.017 281.857 359.285C281.752 358.935 281.31 357.556 281.704 357.28C282.514 356.709 284.912 358.137 285.588 358.6C287.515 359.919 287.81 362.367 289.158 364.074C290.181 365.368 291.37 366.509 292.37 367.821C294.648 370.811 296.788 374.052 298.806 377.218C301.556 381.53 304.763 385.53 307.309 389.99C308.214 391.574 308.668 393.339 309.492 394.956C310.662 397.254 312.805 398.842 314.207 400.975C315.033 402.231 315.122 404.633 316.318 405.63C318.015 407.044 321.998 401.85 322.577 400.531C323.3 398.885 320.664 398.097 321.129 396.667C321.539 395.406 324.625 397.141 325.148 397.398C325.232 397.439 325.326 397.601 325.391 397.535C325.448 397.477 325.292 396.244 325.448 395.943C325.884 395.104 328.012 394.276 328.818 393.184C328.903 393.069 328.955 392.956 329.128 392.94C330.674 392.799 332.001 394.019 332.707 395.023C333.133 395.629 334.481 395.485 335.134 395.697C335.845 395.928 336.427 396.499 337.046 396.894C337.227 397.01 339.4 398.485 339.547 398.224C339.71 397.934 339.615 397.037 339.777 396.631C339.988 396.104 340.561 395.811 340.736 395.275C341.106 394.136 338.036 389.3 337.396 388.207C336.597 386.843 336.225 385.278 335.392 383.932C334.141 381.912 332.681 379.886 331.299 377.943C323.397 366.834 312.277 358.935 299.635 353.962C295.943 352.51 291.491 350.496 287.464 350.352C286.214 350.307 285.007 350.742 283.802 351.002C280.742 351.661 277.399 352.24 274.795 354.114C272.736 355.596 270.987 357.425 269.054 359.035C267.435 360.384 266.063 361.398 264.795 363.115C263.848 364.397 263.006 366.282 262.685 367.836C262.565 368.418 262.835 368.982 262.698 369.566C262.537 370.251 262.008 370.791 261.847 371.475C261.667 372.242 261.917 373.026 261.899 373.793C261.877 374.767 261.593 375.723 261.644 376.701C261.725 378.219 262.453 379.716 262.578 381.261C262.801 384.019 262.833 386.985 263.645 389.66C264.146 391.313 265.087 392.744 265.686 394.35C266.159 395.617 266.301 396.985 266.65 398.287C267.003 399.603 267.637 400.821 267.925 402.153C268.942 406.869 269.299 411.729 270.35 416.458C270.747 418.246 271.574 419.938 271.981 421.704C272.772 425.143 273.298 428.729 275.343 431.712C279.806 438.224 288.02 442.896 295.943 442.837C300.635 442.801 305.363 441.819 310.013 441.312C314.33 440.842 317.958 439.453 321.994 438.074C323.776 437.465 326.178 437.147 327.686 435.956" fill="#ffffff" fill-rule="evenodd" opacity="0" stroke="#000000" stroke-linecap="butt" stroke-linejoin="round" stroke-opacity="0" stroke-width="10"/>
<path d="M332.989 383.162C332.257 383.086 332.037 381.136 331.697 380.512C330.647 378.589 330.18 376.407 329.117 374.519C328.148 372.799 327.692 371.135 326.897 369.393C326.257 367.991 324.912 367.096 324.32 365.618C323.953 364.702 323.985 363.69 323.633 362.772C322.848 360.72 322.16 358.767 321.528 356.664C321.169 355.473 320.273 354.446 319.821 353.292C318.949 351.063 318.555 348.722 317.513 346.511C315.135 341.464 313.224 336.273 310.659 331.289C308.983 328.034 306.822 325.072 304.985 321.917C304.083 320.367 303.651 318.527 302.647 317.01C301.234 314.876 299.794 312.786 298.566 310.536C298.305 310.059 297.589 308.959 297.938 308.308C298.183 307.853 299.164 308.053 299.567 307.946C300.26 307.762 301.678 307.265 302.351 307.334C303.17 307.419 303.529 307.551 304.356 307.282C306.225 306.677 307.163 304.741 309.312 304.732C310.725 304.726 311.765 305.415 313.028 305.903C314.73 306.561 316.454 306.963 318.183 307.631C319.252 308.045 320.448 307.989 321.509 308.355C322.359 308.648 323.013 309.205 323.9 309.444C324.518 309.611 325.139 309.317 325.781 309.543C328.448 310.479 330.264 314.224 333.431 313.459C335.126 313.051 334.077 309.338 333.772 308.298C332.418 303.67 326.933 302.614 323.005 301.489C320.462 300.761 318.047 300.08 315.469 299.502C309.658 298.2 302.852 297.605 296.936 298.492C294.85 298.805 292.819 299.352 290.743 299.705C288.427 300.098 286.025 299.979 283.77 300.714C281.442 301.473 279.534 303.667 277.452 304.988C275.782 306.049 273.78 306.697 272.261 307.977C270.511 309.452 269.367 311.633 267.923 313.38C266.798 314.741 265.543 315.888 264.635 317.436C263.499 319.371 263.202 321.503 262.373 323.542C262.124 324.156 260.965 326.05 260.656 326.617C258.781 330.056 257.897 334.353 257.599 338.206C257.536 339.019 256.399 340.828 256.882 341.601C257.028 341.834 257.812 341.638 257.994 341.634C258.95 341.611 259.851 341.85 260.633 342.423C261.367 342.959 261.857 343.81 262.615 344.314C263.341 344.795 264.256 345.027 265.013 345.472C266.801 346.521 268.507 347.688 270.311 348.711C271.325 349.286 272.567 349.35 273.546 349.928C275.112 350.854 276.433 351.989 277.402 353.305C277.696 353.703 278.112 353.482 278.168 354.064" fill="#ffffff" fill-rule="evenodd" opacity="0" stroke="#000000" stroke-linecap="butt" stroke-linejoin="round" stroke-opacity="0" stroke-width="10"/>
<path d="M190.492 302.62C185.459 298.958 176.997 303.24 171.99 305.447C164.006 308.965 157.336 312.997 150.156 317.941C145.861 320.899 141.374 323.75 137.835 327.58C134.684 330.99 131.881 334.819 132.206 339.681C132.739 347.642 139.919 353.572 142.97 360.503C145.1 365.341 144.599 370.693 144.213 375.754C144.067 377.672 143.122 382.932 144.959 384.904C149.1 389.351 155.028 390.349 159.636 394.073C164.314 397.855 166.556 403.546 172.451 405.929C177.429 407.941 182.699 407.727 187.17 411.056C189.333 412.667 190.585 415.303 192.738 416.928C197.364 420.42 203.394 420.593 208.249 423.68C211.224 425.572 213.094 428.634 216.488 429.953C219.501 431.125 223.039 430.756 226.14 431.825C229.496 432.982 231.926 435.483 235.518 436.151C238.257 436.66 241.255 436.121 244.036 436.487C246.805 436.852 249.671 437.894 252.479 437.942C256.415 438.009 260.366 436.428 264.104 435.449C268.806 434.219 272.996 430.286 277.18 427.996C277.395 427.878 280.806 426.075 281.063 425.33C283.234 419.036 280.201 419.807 278.37 415.04C277.549 412.901 278.116 410.647 277.91 408.38C277.764 406.775 276.868 405.441 277.086 403.832C277.39 401.59 279.087 399.814 279.296 397.573C279.534 395.013 277.015 393.975 276.308 391.758C275.609 389.564 276.514 387.643 275.938 385.441C275.457 383.605 273.689 383.015 273.056 381.431C272.059 378.937 275.021 376.385 275.556 374.18C275.869 372.888 273.871 372.472 273.972 370.929C274.223 367.118 274.353 363.53 273.807 359.794C273.414 357.112 275.679 355.251 275.837 352.849C276.187 347.536 274.227 344.426 271.866 339.778C271.272 338.608 270.816 337.109 269.977 336.058C268.378 334.057 264.95 333.199 262.672 332.656C254.813 330.783 246.542 330.967 238.725 332.876C235.299 333.713 232.32 335.851 229.01 337.068C227.125 337.762 225.065 337.902 223.179 338.594C216.794 340.936 210.16 344.282 203.967 347.104C200.014 348.905 196.509 351.57 192.643 353.55C190.515 354.639 188.173 355.273 186.052 356.374C176.189 361.495 168.141 370.058 162.182 379.297C160.334 382.163 158.5 385.197 157.64 388.548C156.857 391.6 155.948 402.92 158.303 405.783C161.085 409.165 165.745 409.209 169.596 408.325C171.517 407.884 173.906 407.257 175.681 406.366C180.299 404.049 178.611 401.662 179.41 397.511C179.569 396.682 181.139 392.848 181.33 392.244C182.789 387.624 182.886 382.634 185.391 378.353C189.491 371.347 196.355 367.977 202.771 363.543C208.056 359.89 213.212 355.222 217.983 350.949C222.179 347.191 225.501 342.68 229.892 339.036C232.967 336.485 237.092 332.207 241.558 332.501" fill="#ffffff" fill-rule="evenodd" opacity="0" stroke="#000000" stroke-linecap="butt" stroke-linejoin="round" stroke-opacity="0" stroke-width="10"/>
<path d="M280.437 341.017C271.689 339.705 267.253 340.216 262.417 348.482C261.405 350.212 260.123 351.846 261.615 353.823C265.216 358.593 278.715 352.026 279.905 347.387C280.202 346.229 277.82 347.319 277.541 347.456" fill="#ffffff" fill-rule="evenodd" opacity="0" stroke="#000000" stroke-linecap="butt" stroke-linejoin="round" stroke-opacity="0" stroke-width="10"/>
<path d="M265.426 358.231C265.539 358.842 266.064 359.39 266.624 359.658C266.863 359.772 266.654 359.111 266.788 358.883C267.034 358.462 267.627 358.384 268.07 358.18C269.377 357.58 270.725 357.068 272.007 356.417C275.714 354.534 282.199 350.746 281.261 345.566C280.562 341.709 274.376 342.978 272.131 344.29C270.417 345.292 267.978 347.335 267.198 349.246C266.787 350.252 267.1 351.444 266.76 352.476C265.842 355.262 264.851 355.099 265.426 358.231Z" fill="#ffffff" fill-rule="evenodd" opacity="0" stroke="#000000" stroke-linecap="butt" stroke-linejoin="round" stroke-opacity="0" stroke-width="10"/>
<g opacity="1">
<path d="M523.022 88.032C521.38 88.1584 519.661 88.5686 518.848 88.6728C514.389 89.2446 510.024 90.3929 505.544 90.7977C502.581 91.0654 497.01 89.7474 494.344 91.3373C492.293 92.5601 491.496 94.5274 491.119 96.6664C490.693 96.7427 490.238 96.8438 489.864 96.9025C485.277 97.6221 481.724 96.1798 477.272 95.6882C475.062 95.4442 472.667 95.6883 470.45 95.6882C466.926 95.6882 463.881 96.9574 460.472 97.2397C457.189 97.5116 454.104 96.6263 450.867 96.3965C447.959 96.1901 445.09 97.0265 442.145 96.7338C439.923 96.513 437.866 95.4561 435.662 95.1823C432.782 94.8245 429.799 95.2413 426.906 94.98C422.819 94.6107 418.778 93.6293 414.688 93.2598C409.909 92.8281 404.759 94.2783 399.992 94.6427C393.183 95.1632 386.094 93.9745 379.357 95.5196C374.924 96.5363 368.411 98.0438 364.491 100.208C363.053 101.002 363.858 102.562 362.218 103.513C361.197 104.105 359.537 104.852 358.179 105.773C356.22 104.749 353.952 103.247 352.952 103.142C351.1 102.949 349.349 104.291 347.454 104.154C341.378 103.716 335.394 101.582 329.296 102.771C329.119 102.806 328.809 102.84 328.584 102.872C328.093 101.935 327.476 101.029 326.547 100.208C321.954 96.1501 315.201 99.2738 309.781 98.825C307.819 98.6625 305.693 97.662 304.011 96.7338C301.949 95.595 291.791 88.7334 288.976 90.8314C288.46 91.216 288.207 91.9505 288.06 92.7539C287.59 92.6481 287.162 92.4529 286.668 92.4166C281.79 92.0575 276.868 92.6112 271.973 92.4166C265.482 92.1586 259.578 89.9991 253.272 91.7083C251.71 92.1317 249.82 91.318 248.249 91.7083C248.032 91.7623 248.008 93.344 247.978 93.4285C247.477 94.7959 246.239 95.9643 245.941 97.4421C245.661 98.835 246.131 99.8772 245.534 101.287C244.398 103.968 241.337 107.144 239.323 109.146C238.663 109.801 236.235 107.797 235.725 107.291C235.698 107.264 235.717 107.217 235.691 107.189C235.544 105.089 235.6 102.864 234.979 101.321C234.355 99.7713 232.05 98.5083 231.042 97.1723C230.489 96.4404 230.776 95.4415 230.567 94.609C230.431 94.0716 229.217 92.3869 228.836 91.9444C228.682 91.7663 222.132 90.419 221.471 90.3592C217.757 90.0237 213.664 88.9288 209.965 89.145C206.557 89.3443 203.031 91.0359 199.648 91.7083C193.685 92.8936 187.846 91.1288 181.762 92.5515C177.966 93.4391 174.223 94.702 170.46 95.722C168.043 96.3772 165.446 96.0907 162.993 96.7001C160.023 97.4379 157.229 98.7917 154.407 99.8705C149.252 101.841 143.734 102.589 138.353 103.412C134.59 103.987 130.737 105.125 127.187 106.447C125.355 107.13 123.894 108.522 122.164 109.382C120.7 110.109 118.186 109.92 117.141 111.304C116.686 111.907 116.941 112.813 116.666 113.497C116.142 114.799 113.923 114.021 114.698 116.33L116.53 114.475C115.717 117.707 115.349 123.053 116.293 126.178C116.463 126.741 116.846 127.159 117.209 127.595C116.712 127.548 116.092 127.489 115.919 127.426C115.181 127.159 115.426 125.004 114.799 124.492C113.92 123.772 111.555 123.969 110.489 123.851C109.607 123.754 109.748 122.684 109.03 122.468C108.076 122.181 106.476 122.46 105.534 122.603C104.482 122.763 103.6 121.925 102.242 122.333C101.389 122.59 100.126 123.504 99.2551 123.48C98.1367 123.449 97.4478 123.082 96.2006 123.143C95.2792 123.188 94.5041 123.417 93.6212 123.682C92.8487 123.915 92.6377 123.889 93.0103 123.952C93.1811 123.981 91.6857 124.855 91.483 124.998C90.8834 125.42 90.3193 125.517 89.7182 125.909C87.5504 127.32 84.8447 129.015 83.1339 130.934C79.8212 134.65 77.1882 139.163 73.5291 142.604C70.811 145.16 67.8319 147.434 65.3157 150.193C64.1276 151.496 63.5908 153.171 62.4988 154.544C60.9254 156.522 58.7592 158.837 57.6454 161.121C56.9536 162.539 57.0202 164.072 55.9824 165.37C53.095 168.984 49.1018 171.333 46.5133 175.286C43.8185 179.403 41.9066 183.867 39.5897 188.17C38.937 189.383 37.1742 190.394 36.1618 191.24C34.9776 192.229 34.1394 194.347 33.277 195.624C31.4246 198.368 30.7787 202.031 29.1024 204.866C27.8216 207.032 25.4562 208.323 24.0454 210.363C23.4955 211.159 23.3445 212.426 22.9933 213.298C22.2831 215.062 20.1512 218.223 20.1763 219.807C20.2028 221.472 20.9514 223.001 20.4139 224.765C20.0917 225.823 18.725 226.368 18.2079 227.329C17.7092 228.255 19.1575 230.354 19.3279 231.342C19.4457 232.025 19.0545 232.846 19.0903 233.568C19.1241 234.252 19.8312 235.064 20.6515 235.828C20.3968 236.449 20.3296 237.061 19.9048 237.987C19.3051 239.293 18.0506 240.352 17.6988 241.764C17.4401 242.803 17.9784 243.96 17.6988 245.137C17.3213 246.726 16.2476 248.042 15.9679 249.657C15.7473 250.93 16.0619 252.287 16.0697 253.569C16.094 257.558 15.9545 261.356 16.6806 265.273C16.8741 266.316 16.4999 267.778 16.5109 268.848C16.555 273.134 16.5851 277.543 17.1897 281.799C17.4612 283.711 17.7676 285.657 18.3436 287.499C18.8773 289.207 20.0985 290.799 20.2442 292.626C20.3899 294.453 20.5847 296.894 20.2782 298.663C19.9908 300.322 19.0458 301.693 19.0563 303.419C19.0727 306.109 19.8118 308.979 20.2782 311.615C20.6845 313.912 20.2362 316.229 20.5497 318.529C20.9629 321.562 22.4775 324.456 23.197 327.433C23.883 330.272 23.3748 333.339 24.2151 336.135C24.6761 337.669 25.7882 338.849 26.2854 340.351C27.9944 345.516 28.2897 351.275 32.2927 355.394C32.9306 356.05 33.949 356.378 34.6685 356.945C35.57 357.656 36.3004 358.642 37.3157 359.205C38.8441 360.053 40.2351 360.111 41.66 360.15C42.1651 360.525 42.6758 360.896 42.9157 361.296C43.9202 362.972 43.652 365.101 43.4927 366.895C43.4128 367.796 45.3045 369.782 45.8006 370.639C46.7729 372.319 47.908 373.768 48.9569 375.327C49.7962 376.574 49.7769 378.241 50.7897 379.442C52.2498 381.174 55.923 381.616 56.8648 383.557C57.6953 385.268 56.0359 388.261 55.5073 389.965C55.1131 391.236 56.0727 393.916 56.6272 395.125C56.7348 395.36 57.0415 396.544 57.2382 396.677C57.3327 396.741 58.2337 396.506 58.46 396.576C59.139 396.784 59.6949 397.033 60.2927 397.149C59.6594 398.202 58.9854 399.197 59.1388 400.724C59.3169 402.499 64.2072 406.372 65.5194 407.773C67.6024 409.999 68.1703 413.155 70.2369 415.362C72.111 417.364 74.9371 417.863 76.8551 419.814C77.9725 420.951 78.6813 422.334 79.9097 423.39C82.7681 425.845 86.103 427.56 89.0733 429.865C91.114 431.449 92.6649 433.735 94.6394 435.43C96.2674 436.829 98.1301 437.855 99.7982 439.174C103.131 441.809 105.054 445.219 107.876 448.281C109.694 450.254 112.111 451.286 114.392 452.632C115.872 453.505 117.412 454.102 119.11 454.116C120.995 456.023 123.914 457.304 126.305 458.096C127.201 458.393 130.634 456.9 131.498 456.409C132.432 455.879 135.888 451.491 137.03 452.058C137.44 452.262 137.504 455.776 138.014 456.409C139.415 458.15 140.892 459.816 142.053 461.738C142.569 462.593 142.786 463.679 143.478 464.504C144.888 466.185 147.609 467.094 149.384 468.416C150.683 469.385 152.469 471.597 154.373 471.081C154.649 471.006 154.819 470.827 155.051 470.71C155.144 470.898 157.457 472.176 157.902 472.531C159.885 474.113 162.445 475.307 164.792 476.309C166.951 477.23 168.596 478.775 170.596 479.951C174.511 482.256 178.586 484.583 182.169 487.338C185.821 490.145 190.16 492.268 194.591 493.611C197.808 494.587 201.014 494.349 204.264 494.792C208.153 495.321 212.401 496.778 216.074 498.131C217.47 498.645 218.581 499.633 220.011 500.087C223.67 501.249 227.255 502.424 230.906 503.696C233.829 504.714 235.926 505.985 239.085 506.226C240.927 506.366 242.877 506.484 244.685 506.9C247.611 507.574 251.648 508.978 254.765 507.777C259.516 509.514 264.509 510.155 269.427 511.318C275.897 512.848 282.395 513.929 289.01 514.792C291.715 515.145 294.623 513.58 297.325 513.342C299.996 513.108 302.981 514.43 305.539 513.882C309.949 512.936 314.352 511.622 318.741 510.576C322.206 509.751 327.879 510.235 330.891 508.519C332.448 507.632 330.285 505.842 329.5 505.382C327.749 504.358 323.431 504.285 324.85 501.807C325.495 500.682 327.056 500.694 327.735 499.75C328.069 499.285 327.587 498.89 328.142 498.333C329.463 497.008 331.622 497.114 333.301 496.579C338.915 494.791 344.575 495.466 350.237 494.252C352.219 493.827 356.394 493.107 358.416 491.284C362.47 491.362 366.564 489.06 370.601 489.024C371.797 489.014 372.96 489.409 374.164 489.362C378.49 489.192 383.362 488.398 387.468 486.899C388.666 486.462 389.734 485.632 390.896 485.112C392.896 484.216 395.047 483.739 397.039 482.852C398.703 482.111 400.281 481.02 402.096 480.66C406.238 479.837 410.761 479.289 414.959 478.872C416.886 478.681 418.714 478.419 420.627 478.13C421.488 478 422.516 478.239 423.342 477.928C427.828 476.24 432.119 473.762 436.782 472.498C437.9 472.194 439.085 472.474 440.21 472.194C443.061 471.483 445.99 470.116 448.797 469.158C450.69 468.512 452.007 466.898 453.854 466.19C455.396 465.6 459.068 465.41 459.963 463.695C460.667 463.566 461.429 463.309 461.864 463.222C464.447 462.709 467.003 462.721 469.602 462.345C474.707 461.606 479.51 460.551 484.535 459.377C485.833 459.074 487.181 459.234 488.472 458.871C490.739 458.235 492.632 456.8 495.056 456.612C496.725 456.482 504.183 456.024 504.525 454.655C504.712 453.908 500.569 452.742 500.045 452.632C497.285 452.053 494.135 452.151 491.662 450.777C491.29 450.57 489.717 450.725 489.999 450.035C490.467 448.89 492.789 449.428 493.631 448.989C494.288 448.647 494.317 447.065 495.09 446.662C496.208 446.08 497.936 446.687 499.129 446.594C503.691 446.24 508.396 446.866 512.976 446.291C519.229 445.506 525.405 443.697 531.168 441.063C533.004 440.224 534.574 438.936 536.361 438.028C539.146 436.611 541.415 435.244 543.759 433.441C544.33 433.296 544.911 433.197 545.287 433.171C547.458 433.021 548.913 432.901 550.988 432.361C552.547 431.956 554.287 432.464 555.774 431.923C557.635 431.246 560.177 430.582 561.815 429.427C562.345 429.053 562.421 428.282 562.901 427.977C565.509 426.317 568.846 425.929 571.556 424.401C574.583 422.695 577.046 417.901 573.287 415.565C569.301 413.088 564.348 412.398 559.813 411.989C558.559 411.877 557.501 411.446 556.215 411.551C555.052 411.646 554.083 412.323 552.957 412.529C551.148 412.86 549.157 412.546 547.323 412.765C545.604 412.971 543.866 412.264 542.13 412.361C537.165 412.638 532.236 412.891 527.265 413.035C525.845 413.076 524.428 412.551 523.022 412.428C521.639 412.307 520.26 412.733 518.882 412.563C517.732 412.421 516.529 411.927 515.352 412.023C513.994 412.134 512.782 412.672 511.381 412.597C510.427 412.545 509.495 412.229 508.53 412.394C507.503 412.571 506.244 413.219 505.204 413.103C503.952 412.962 502.814 412.559 501.505 412.597C500.22 412.634 499.086 413.137 497.771 412.934C492.328 412.094 486.554 411.596 481.005 411.517C479.386 411.494 477.848 410.829 476.22 410.876C472.735 410.977 469.198 412.024 465.733 412.124C463.732 412.182 461.753 411.836 459.759 412.226C457.803 412.608 455.674 413.067 453.752 413.507C452.598 413.772 451.479 414.518 450.29 414.553C449.047 414.589 447.821 413.955 446.591 413.845C442.971 413.519 439.397 413.958 435.832 413.474C432.569 413.03 429.403 411.952 426.091 411.855C421.623 411.723 417.565 412.729 413.228 413.474C411.76 413.726 411.224 414.591 411.124 415.7C410.433 415.768 409.659 415.812 409.224 415.902C403.98 416.985 398.237 417.523 392.899 417.69C389.951 417.781 387.056 419.068 384.618 420.624C384.129 420.935 382.244 423.319 381.834 423.187C379.586 422.461 379.963 418.016 377.456 417.386C375.781 416.965 373.829 416.828 372.128 417.217C371.104 417.452 370.324 418.205 369.209 418.33C366.737 418.608 364.304 419.31 361.912 419.578C361.113 419.668 360.429 419.791 359.706 419.814C353.419 415.197 350.927 423.393 345.35 421.062C343.469 420.276 343.666 417.239 342.193 415.834C341.864 415.521 341.025 415.324 339.987 415.194C339.967 415.114 339.943 415.036 339.919 414.958C339.462 413.436 338.307 412.196 337.849 410.674C337.179 408.447 338.052 405.132 335.473 403.524C334.206 402.733 331.424 403.048 330.077 402.546C326.693 401.285 323.344 398.329 319.793 397.554C316.39 396.811 312.18 399.205 308.627 398.161C306.572 397.557 302.363 395.757 300.516 394.417C300.368 394.31 296.337 390.682 296.002 390.572C293.458 389.741 289.597 390.805 287.042 389.695C283.764 388.272 277.559 382.578 273.941 382.343C272.865 382.273 271.929 383.315 270.853 383.388C268.694 383.535 266.331 383.625 264.404 382.646C261.431 381.135 261.425 379.137 258.974 377.148C257.346 375.828 255.082 375.288 253.747 373.674C250.682 369.968 252.548 366.434 252.661 362.241C252.76 358.6 251.897 354.083 254.29 350.841C254.817 350.127 255.933 350.042 256.496 349.357C257.305 348.372 257.758 347.152 258.261 345.984C259.372 343.406 259.086 339.836 260.603 337.484C261.768 335.678 263.641 334.436 264.947 332.729C266.099 331.223 266.779 329.332 268.138 328.007C268.899 327.264 270.078 327.047 270.785 326.253C271.989 324.9 272.878 322.683 273.33 320.452C285.112 317.268 296.949 312.193 301.5 300.046C302.761 296.68 303.419 293.348 303.842 290.029C308.024 290.397 312.203 290.017 314.736 289.017C316.302 288.399 317.799 287.566 319.114 286.521C322.248 284.033 323.324 281.503 323.221 279.067C325.965 280.071 329.247 280.099 332.079 279.641C335.517 279.084 340.508 276.077 343.517 276.234C348.957 276.519 355.047 277.34 360.656 276.47C360.484 276.806 360.23 277.103 360.215 277.516L379.187 292.053C378.183 292.747 380.324 293.394 380.782 293.604C382.789 294.526 384.775 295.346 387.027 295.426C389.399 295.51 391.574 293.4 393.985 292.997C398.314 292.274 403.056 293.661 407.357 294.144C411.636 294.624 415.838 296.598 420.254 296.269C422.709 296.085 425.163 295.245 427.585 294.852C429.865 294.483 432.32 294.956 434.508 294.144C437.704 292.958 440.736 290.847 444.011 290.029C449.081 288.764 454.19 289.183 459.318 288.41C463.259 287.816 469.613 284.935 473.403 285.914C474.318 286.151 476.877 286.774 477.272 287.634C477.556 288.254 474.989 289.939 474.523 290.13C472.77 290.848 470.826 291.048 468.991 291.446C467.44 291.782 466.136 292.687 464.613 293.132C461.652 293.997 460.216 296.617 457.384 297.685C453 299.339 448.593 300.029 443.977 300.586C442.267 300.792 440.57 300.466 438.887 300.653C437.007 300.862 435.215 301.317 433.287 301.395C430.679 301.502 423.38 301.144 422.087 303.925C421.155 305.928 426.65 307.254 427.924 307.399C430.306 307.67 432.676 307.999 435.085 307.837C439.318 307.554 443.503 306.257 447.745 306.084C449.799 306 451.992 305.603 454.024 305.274C454.294 305.23 455.902 305.593 455.822 305.847C455.698 306.243 453.878 306.529 453.514 306.724C452.551 307.244 451.926 308.467 450.833 308.613C448.386 308.939 445.742 307.918 443.265 307.905C439.794 307.886 436.477 309.258 433.117 309.827C432.038 310.01 426.284 310.372 426.431 311.379C426.739 313.488 430.816 314.37 432.336 314.752C434.529 315.303 436.967 315.987 439.26 315.763C443.993 315.302 447.559 312.167 451.716 310.3C452.273 310.049 458.243 307.426 458.164 309.625C458.095 311.56 451.046 314.907 449.544 316C441.42 321.906 431.6 324.548 421.951 320.62C419.197 319.5 416.955 317.18 414.077 316.135C411.865 315.331 407.221 316.886 409.291 319.946C409.89 320.831 411.032 321.244 411.871 321.835C415.197 324.177 419.218 325.367 422.969 326.894C431.092 330.2 445.667 330.536 453.514 325.68C457.358 323.301 460.005 319.041 462.916 315.73C464.384 314.059 466.099 312.543 467.633 310.907C467.804 311.228 468.056 311.382 468.516 310.907C468.906 310.503 469.106 309.927 469.262 309.321C469.333 309.255 469.395 309.186 469.466 309.119C469.988 309.051 470.515 309.124 471.027 308.95C471.848 308.673 472.371 307.884 472.86 307.163L489.931 301.26C489.231 303.342 489.115 305.701 487.895 307.601C486.706 309.454 484.508 312.355 482.974 313.942C481.473 315.496 479.729 317.016 478.833 319.035C478.439 319.924 478.714 320.853 478.392 321.767C478.014 322.841 477.152 323.43 476.695 324.432C476.253 325.4 476.471 326.54 475.914 327.467C475.362 328.389 474.28 328.881 473.674 329.761C473.165 330.501 473.035 331.416 472.453 332.122C471.51 333.263 470.063 333.773 469.025 334.786C468.204 335.587 468.252 336.933 467.497 337.788C466.876 338.491 465.849 338.955 465.122 339.542C464.302 340.202 464.078 341.137 463.323 341.835C462.394 342.694 461.217 343.249 460.302 344.129C459.183 345.206 458.704 346.818 457.519 347.974C455.972 349.484 453.668 349.594 452.055 350.976C449.688 353.004 447.968 355.687 445.539 357.721C444.173 358.865 440.734 360.683 439.837 361.836C439.268 362.567 439.529 363.347 439.09 364.096C438.501 365.101 437.258 365.541 436.545 366.457C433.656 370.168 430.032 373.32 426.431 376.406C425.584 377.132 424.432 377.384 423.546 378.059C422.594 378.784 421.894 379.935 420.967 380.724C419.526 381.948 414.596 383.972 415.876 386.322C416.637 387.721 419.496 386.035 420.186 385.479C422.904 383.29 425.427 380.903 428.331 378.936C429.292 378.285 429.972 377.585 430.741 376.879C429.184 378.606 427.642 381.021 427.313 382.174C427.206 382.549 426.65 384.836 427.076 384.906C429.947 385.375 435.491 378.379 436.952 376.373C440.057 372.11 445.169 370.005 449.238 366.727C450.097 366.034 450.418 364.887 451.274 364.163C454.188 361.702 456.981 359.084 459.318 356.035C460.92 353.945 462.01 351.332 463.527 349.12C465.289 346.55 467.509 344.424 469.127 341.7C470.968 338.6 472.181 334.91 474.591 332.122C478.058 328.111 482.864 325.181 485.791 320.62C488 317.178 491.252 313.483 491.594 309.288C491.637 308.765 492.628 306.925 493.291 306.994C494.386 307.108 494.537 310.624 494.615 311.278C494.734 312.279 494.658 316.067 494.276 317.045C493.907 317.988 493.03 318.854 493.02 319.912C493.008 321.207 493.191 322.807 493.291 324.128C493.388 325.399 494.065 326.59 493.733 327.906C493.525 328.727 492.715 329.405 492.307 330.132C491.667 331.271 491.331 333.098 490.95 334.348C489.759 338.243 489.07 342.307 488.065 346.287C487.554 348.31 486.289 350.483 485.417 352.392C483.799 355.938 482.483 359.323 480.53 362.679C480.046 363.511 479.175 363.905 478.664 364.703C477.448 366.597 476.599 368.928 475.745 370.976C475.507 371.547 475.557 372.408 475.032 372.831C469.724 377.108 463.805 373.899 457.689 374.551C457.518 374.57 449.928 375.755 451.784 377.182C453.919 378.824 460.96 378.557 463.798 378.363C467.964 378.078 472.88 379.168 477.001 377.823C478.659 377.282 479.89 375.144 480.768 373.776C481.417 372.765 482.716 372.32 483.279 371.212C485.078 367.677 484.726 363.364 486.062 359.677C486.604 358.184 487.667 356.253 488.438 354.854C490.566 350.994 494.897 348.592 497.025 344.803C499.475 340.439 501.587 335.458 503.202 330.874C503.925 328.819 505.374 327.187 505.917 325.039C507.899 317.193 506.622 308.363 506.46 300.384C506.425 298.67 506.628 296.99 506.731 295.291C508.436 295.63 510.286 295.357 512.026 295.628C516.612 296.342 522.099 296.322 526.009 293.199C527.569 291.953 529.686 290.566 531.541 289.759C532.217 289.465 533.345 289.304 533.883 288.781C534.219 288.454 534.436 287.375 535.003 287.128C535.629 286.856 537.062 287.753 537.209 288.41C537.551 289.941 538.356 291.93 538.431 293.436C538.493 294.684 538.111 295.716 538.193 296.977C538.263 298.046 538.684 299.206 538.567 300.282C538.452 301.326 538.052 302.218 538.091 303.284C538.132 304.368 538.699 305.368 538.668 306.455C538.628 307.866 537.925 309.153 538.091 310.603C538.319 312.585 538.524 315.259 539.11 317.146C539.413 318.125 540.015 318.927 540.162 319.979C540.316 321.087 539.834 321.811 539.721 322.846C539.631 323.662 539.971 324.567 539.992 325.376C540.026 326.689 539.351 327.67 539.177 328.884C538.805 331.486 539.558 334.372 539.347 337.046C539.17 339.296 538.503 341.3 538.227 343.488C538.122 344.325 538.333 345.265 538.159 346.085C538.016 346.761 537.464 347.404 537.243 348.041C536.581 349.948 536.345 353.476 536.666 355.461C537.117 358.256 538.235 360.875 538.567 363.758C538.69 364.836 538.022 365.557 537.956 366.558C537.789 369.06 537.684 370.924 538.499 373.27C539.338 375.686 539.573 377.04 542.402 376.305C543.014 376.146 544.169 375.809 544.608 375.293C546.518 373.049 544.144 368.929 544.676 366.423C544.897 365.379 545.64 364.543 545.864 363.489C546.095 362.397 545.813 361.244 545.999 360.15C546.194 359.008 547.026 358.307 547.221 357.181C547.672 354.587 546.79 351.683 547.051 349.019C547.468 344.784 550.249 341.539 550.072 336.776C549.983 334.376 548.487 332.1 548.171 329.727C547.913 327.784 548.416 324.78 548.884 322.88C549.416 320.724 550.799 319.076 550.853 316.742C550.945 312.692 549.562 308.47 549.325 304.431C549.119 300.923 548.263 297.544 547.561 294.043C547.195 292.22 548.079 290.288 547.594 288.444C546.866 285.673 545.895 282.931 544.744 280.248C544.899 279.519 545.826 278.66 546.305 278.224C549.295 275.503 553.867 275.391 556.928 272.828C559.701 270.505 562.453 265.448 566.091 264.902C568.155 264.592 570.235 265.827 572.336 265.745C576.148 265.596 579.793 264.269 583.536 263.856C584.868 263.709 586.339 264.117 587.609 263.586C589.519 262.788 590.749 261.152 592.225 259.809C593.647 258.514 595.35 257.695 596.535 256.099C597.998 254.127 599.127 251.234 601.864 250.736C603.811 250.382 604.863 251.405 606.649 251.647C607.634 251.78 608.497 251.436 609.466 251.444C610.427 251.452 611.269 251.976 612.215 252.051C613.73 252.172 615.008 251.586 616.457 251.444C620.381 251.061 624.402 250.279 628.336 250.331C633.624 250.401 639.692 252.299 644.797 253.771C645.851 254.075 646.618 254.865 647.75 255.087C653.994 256.31 660.163 257.549 666.213 259.539C670.512 260.953 673.226 264.221 676.462 267.195C678.673 269.226 681.777 270.444 684.2 272.221C686.185 273.676 687.178 275.474 688.613 277.314C690.275 279.444 692.683 281.647 694.824 283.216C696.326 284.317 700.691 292.043 703.207 290.231C704.423 289.355 703.506 285.446 703.003 284.599C700.676 280.681 695.874 278.202 694.179 273.738C693.943 273.118 690.476 269.32 691.735 268.848C693.923 268.027 695.262 270.256 696.826 271.276C699.077 272.745 701.661 274.046 703.817 275.627C705.601 276.934 707.838 280.105 709.451 281.833C710.529 282.988 713.868 286.264 715.459 283.857C716.664 282.033 710.454 276.372 709.451 275.222C707.832 273.365 705.928 272.018 703.987 270.534C700.607 267.951 697.685 264.576 694.552 261.697C692.28 259.61 689.682 257.862 687.662 255.525C684.432 251.789 680.958 250.641 676.802 248.173C674.293 246.683 672.171 244.503 669.505 243.215C666.807 241.911 663.713 241.289 660.918 240.213C658.212 239.171 655.844 237.616 653.214 236.435C649.905 234.949 646.687 234.801 643.27 233.906C640.618 233.211 638.313 232.318 635.531 232.051C631.41 231.655 627.358 232.831 623.313 233.164C620.393 233.404 617.337 233.353 614.489 233.939C613.184 234.208 607.551 234.748 606.751 233.804C605.211 231.989 606.732 230.645 607.973 229.69C608.864 229.003 607.597 228.581 609.194 228.374C610.037 228.265 612.488 228.537 613.301 228.846C613.935 229.088 614.155 229.654 614.964 229.487C619.988 228.453 624.63 226.686 629.762 225.845C632.792 225.348 635.969 226.191 638.824 224.765C640.152 224.102 641.442 222.913 642.93 222.607C644.799 222.222 648.381 222.361 648.496 220.448C650.8 220.588 653.201 219.946 655.556 219.807C658.731 219.62 661.877 220.278 665.059 220.043C669.254 219.734 673.727 218.959 677.888 219.301C679.251 219.413 682.661 219.918 683.691 220.785C684.335 221.327 683.274 221.684 684.133 222.269C685.75 223.373 688.44 224.003 690.344 224.226C694.769 224.743 699.354 224.94 703.784 225.676C707.879 226.356 711.752 228.23 715.968 228.577C718.619 228.794 720.446 225.996 723.434 226.384C728.262 227.012 732.896 229.375 737.859 229.454C741.414 229.51 745.071 228.402 748.685 228.34C753.673 228.255 758.503 229.911 763.483 229.454C766.012 229.221 768.563 230.187 771.085 229.656C773.844 229.075 775.724 227.622 778.654 227.598C780.932 227.58 784.066 227.546 786.256 228.003C787.871 228.34 789.387 229.275 791.076 229.285C791.872 229.289 798.549 228.192 798.712 227.362C798.981 225.995 793.274 224.355 792.705 224.192C788.5 222.991 784.143 222.192 779.876 221.224C777.129 220.601 774.873 219.497 772.07 219.133C768.245 218.636 764.233 219 760.496 218.424C759.102 218.21 757.894 217.43 756.457 217.311C754.895 217.183 753.337 217.778 751.808 217.919C750.228 218.064 748.65 217.303 747.022 217.413C740.512 217.852 733.809 220.635 727.236 219.706C724.217 219.279 720.267 219.141 717.393 218.121C715.415 217.418 713.775 216.437 711.624 216.198C704.582 215.418 695.35 214.085 690.072 208.846C689.592 208.37 687.516 207.245 687.323 206.62C686.945 205.397 694.399 204.912 695.197 204.933C703.117 205.146 711.472 206.68 719.26 207.901C723.802 208.613 728.645 208.023 733.175 207.699C736.042 207.494 738.906 207.972 741.762 207.868C746.701 207.686 751.596 206.933 756.457 206.181C758.17 205.916 759.509 206.322 761.141 206.552C763.028 206.819 764.803 206.359 766.673 206.249C771.609 205.957 776.877 206.629 781.844 206.822C783.532 206.888 785.009 207.479 786.664 206.889C791.604 205.13 796.638 204.529 801.563 202.775C803.89 201.946 806.216 201.831 805.33 198.963C804.409 195.984 800.347 193.158 797.897 191.678C796.9 191.076 795.862 189.967 794.809 189.52C791.923 188.293 788.558 188.556 785.51 188.305C778.961 187.767 772.269 187.124 765.689 188.339C761.669 189.081 757.594 189.651 753.539 190.363C753.293 190.406 750.976 191.18 750.722 190.666C749.983 189.178 756.324 187.451 756.933 187.294C761.768 186.039 766.789 185.637 771.696 184.73C772.624 184.559 775.518 184.523 774.751 182.976C774.539 182.55 773.936 182.234 773.427 181.897C774.072 181.895 774.723 181.83 775.362 181.931C776.808 182.16 778.175 183.278 779.638 183.347C781.207 183.421 782.86 182.512 784.491 182.538C789.799 182.623 795.34 182.932 800.68 183.111C802.62 183.176 804.433 182.442 806.314 182.133C808.047 181.849 809.766 182.55 811.507 182.538C813.79 182.522 823.916 180.401 824.336 177.782C824.417 177.277 823.949 176.815 823.725 176.433C822.805 174.863 821.848 173.723 820.094 172.925C818.985 172.421 815.662 172.124 815.071 170.767C814.53 169.525 817.822 168.735 817.616 168.574C814.703 166.303 804.643 165.56 800.85 165.708C798.707 165.791 797.23 166.443 794.911 166.214C794.773 166.2 794.482 166.315 794.504 166.18C794.614 165.494 797.32 165.336 797.796 165.235C801.931 164.364 809.182 165.716 802.785 160.176C802.174 159.647 801.563 159.154 800.952 158.625C799.606 157.459 798.44 156.866 796.676 156.5C789.654 155.044 782.034 155.453 774.92 155.252C772.07 155.171 768.394 154.726 765.621 154.173C763.852 153.82 762.366 152.738 760.564 152.452C759.275 152.248 758.031 152.586 756.763 152.452C755.341 152.303 753.997 151.463 752.588 151.171C751.071 150.856 749.486 151.203 748.007 150.867C746.418 150.507 745.006 149.566 743.425 149.316C740.665 148.878 737.509 148.673 734.702 148.54C733.827 148.499 733.059 148.919 732.157 148.776C731.533 148.677 730.952 148.418 730.324 148.473C730.173 148.486 729.286 148.848 729.272 148.506C729.229 147.417 729.936 147.215 729.17 145.909C728.569 144.884 727.241 144.003 727.371 142.705C727.815 138.28 737.482 140.095 740.336 140.378C742.393 140.582 744.197 139.369 746.242 139.535C752.337 140.029 758.523 141.028 764.705 140.985C769.443 140.952 774.227 140.032 778.925 140.108C784.071 140.191 788.039 137.879 792.705 136.128C793.362 135.882 798.911 134.801 796.472 133.396C793.759 131.833 790.201 130.989 787.24 130.158C786.038 129.821 784.831 128.834 783.609 128.641C781.959 128.379 780.09 128.888 778.416 128.775C776.246 128.63 774.106 128.122 771.934 128.033C770.084 127.958 768.422 128.339 766.571 128.135C764.866 127.946 763.285 127.177 761.582 127.022C758.405 126.732 755.073 126.837 751.876 126.651C750.147 126.55 748.688 127.262 747.022 127.426C745.36 127.591 743.791 127.098 742.135 127.19C738.651 127.384 735.372 128.134 731.817 127.966C727.234 127.75 722.681 126.857 718.106 126.516C717.497 126.47 716.876 126.563 716.273 126.651C716.093 126.361 715.831 126.12 715.696 125.807C715.483 125.313 715.685 123.545 715.391 123.278C714.339 122.32 711.081 122.986 711.047 122.94C710.732 122.528 710.346 121.95 710.198 121.456C708.114 120.995 706.342 120.603 704.191 120.31C700.204 119.767 696.193 120.048 692.278 119.635C690.762 119.475 689.533 118.485 688.07 118.286C687.372 118.191 682.296 120.131 681.994 119.736C681.761 119.43 682.501 119.193 682.809 118.961C683.207 118.66 687.035 116.764 686.373 116.161C685.329 115.211 681.675 115.934 680.433 115.959C674.846 116.072 669.372 114.264 663.837 114.677C662.007 114.814 660.026 114.74 658.44 113.901C658.204 113.776 657.576 113.75 657.728 113.53C658.118 112.963 666.027 110.451 664.346 108.741C663.046 107.418 660.682 108.782 659.289 108.842C657.186 108.934 654.967 109.575 652.874 109.55C650.213 109.519 648.379 109.264 645.577 109.787C643.807 110.117 640.235 110.628 638.756 109.281C637.281 107.938 646.972 103.354 645.883 101.928C644.731 100.419 640.464 101.758 639.061 102.231C634.25 103.856 628.779 104.165 623.788 104.592C622.192 104.729 618.933 105.126 617.985 103.243C617.003 101.293 624.758 96.9251 624.128 95.0811C623.661 93.7161 620.037 94.869 619.037 94.9125C614.233 95.1214 609.464 97.2311 604.613 97.4421C603.331 97.4978 601.438 99.0641 600.133 97.948C599.95 97.7917 598.699 96.357 598.775 96.093C598.914 95.6102 599.393 95.7244 599.657 95.4184C601.103 93.7482 600.931 91.6603 599.352 90.4267C599.149 90.2676 598.318 89.3893 597.893 89.5835C595.966 90.4629 592.679 90.1697 590.935 91.7083C589.726 92.7755 588.818 94.337 587.304 95.1149C585.785 95.8949 583.726 95.6141 582.348 96.5314C581.633 97.0082 581.406 97.8603 580.516 98.1841C579.527 98.5435 578.31 97.954 577.257 98.1504C576.394 98.3116 575.337 99.111 574.474 98.9936C569.938 98.3761 573.489 92.0151 571.114 89.8533C569.722 88.5858 567.187 90.3691 565.718 90.8651C562.163 92.0656 559.661 92.8474 557.165 95.0474C556.084 95.266 554.999 95.559 553.941 95.6545C552.33 95.8001 550.813 95.2632 549.224 95.351C547.031 95.472 544.762 96.1928 542.537 96.3628C538.332 96.6843 533.977 95.1734 529.776 94.9125C526.91 94.7345 523.773 97.8994 520.816 96.4303C520.779 96.4116 521.722 94.6535 521.834 94.5415C522.611 93.77 523.69 93.3839 524.414 92.5515C524.991 91.8873 525.123 90.9583 525.636 90.258C525.89 89.9103 527.003 89.6021 526.722 89.0438C526.224 88.0538 524.665 87.9056 523.022 88.032ZM710.198 121.456C710.352 121.491 710.481 121.523 710.639 121.558C710.913 121.618 711.785 121.991 711.929 121.49C711.933 121.477 710.389 120.725 710.164 120.849C709.948 120.969 710.128 121.222 710.198 121.456ZM480.021 288.511C480.033 288.579 480.045 288.646 480.055 288.714L479.987 288.815C480.009 288.716 480.001 288.611 480.021 288.511Z" fill="#ffffff" fill-rule="evenodd" stroke="none"/>
<path d="" fill="#000000" fill-opacity="0" stroke="none"/>
</g>
</g>
</svg>
