<?xml version="1.0" standalone="no"?>
<!DOCTYPE svg PUBLIC "-//W3C//DTD SVG 20010904//EN"
 "http://www.w3.org/TR/2001/REC-SVG-20010904/DTD/svg10.dtd">
<svg version="1.0" xmlns="http://www.w3.org/2000/svg"
 width="843.000000pt" height="843.000000pt" viewBox="0 0 843.000000 843.000000"
 preserveAspectRatio="xMidYMid meet">
<metadata>
Created by potrace 1.14, written by Peter Selinger 2001-2017
</metadata>
<g transform="translate(0.000000,843.000000) scale(0.100000,-0.100000)"
fill="#000000" stroke="none">
<path d="M5160 6239 c-19 -5 -75 -11 -124 -14 -91 -4 -111 -12 -122 -47 -6
-19 -11 -20 -73 -13 -36 4 -86 6 -111 5 -25 0 -101 -3 -170 -5 -69 -2 -145 0
-170 5 -150 30 -507 27 -639 -6 -66 -17 -121 -42 -121 -56 0 -4 -13 -14 -28
-22 -21 -11 -32 -12 -47 -3 -11 6 -56 12 -100 14 -44 2 -99 5 -122 6 -25 1
-52 10 -65 22 -19 16 -38 19 -108 20 -78 0 -90 3 -150 36 -78 42 -106 51 -119
35 -9 -11 -56 -11 -291 -2 -52 2 -100 1 -107 -1 -12 -5 -27 -40 -37 -83 -6
-31 -54 -90 -72 -90 -17 0 -22 9 -29 51 -3 19 -14 41 -24 49 -11 8 -22 25 -26
38 -9 30 -27 38 -110 50 -73 11 -123 11 -140 0 -16 -10 -83 -19 -170 -22 -44
-2 -87 -5 -95 -8 -48 -15 -99 -27 -130 -31 -35 -5 -56 -11 -95 -27 -31 -13
-93 -32 -118 -35 -12 -2 -41 -6 -65 -9 -24 -3 -52 -11 -63 -16 -10 -6 -19 -8
-19 -4 0 3 -20 -6 -44 -20 -25 -14 -52 -26 -61 -26 -29 0 -53 -108 -32 -152
11 -25 -5 -23 -21 2 -7 12 -17 18 -23 15 -5 -4 -15 -3 -22 2 -7 6 -28 8 -47 7
-98 -8 -124 -13 -150 -33 -16 -11 -32 -21 -36 -21 -7 0 -31 -26 -72 -79 -15
-19 -56 -65 -92 -102 -83 -86 -117 -129 -125 -161 -4 -14 -30 -48 -60 -77 -30
-29 -67 -79 -84 -115 -18 -35 -45 -76 -61 -91 -17 -16 -30 -35 -30 -42 0 -7
-4 -13 -8 -13 -5 0 -14 -18 -21 -41 -7 -22 -27 -57 -45 -77 -40 -46 -58 -86
-62 -135 -1 -21 -8 -44 -14 -52 -7 -9 -8 -20 -2 -32 5 -10 7 -24 5 -31 -3 -7
0 -18 6 -26 7 -9 7 -18 -3 -32 -8 -11 -17 -35 -20 -54 -3 -19 -10 -52 -15 -72
-5 -20 -6 -39 -3 -43 3 -3 6 -56 7 -118 3 -124 10 -186 29 -232 7 -16 10 -43
8 -60 -10 -86 0 -242 19 -276 5 -10 12 -42 15 -71 3 -29 13 -66 21 -82 8 -16
17 -43 20 -60 6 -36 40 -106 52 -106 4 0 18 -9 31 -20 13 -11 31 -20 41 -20
22 0 39 -28 35 -56 -2 -10 3 -27 11 -36 8 -9 25 -36 38 -59 12 -24 31 -48 41
-54 42 -23 47 -35 36 -71 -12 -39 3 -94 26 -94 10 0 12 -7 8 -24 -4 -17 2 -29
24 -50 17 -15 44 -49 61 -76 17 -28 37 -50 44 -50 7 0 26 -14 42 -31 15 -17
54 -48 85 -70 31 -21 63 -47 70 -56 7 -10 31 -31 53 -47 22 -17 42 -33 45 -37
35 -50 83 -95 120 -111 25 -12 46 -19 46 -17 1 2 10 -4 20 -13 43 -38 92 -31
143 20 12 12 16 9 28 -19 8 -18 17 -36 21 -39 4 -3 15 -17 24 -32 21 -32 102
-88 128 -88 10 0 21 -4 24 -9 4 -5 41 -28 84 -52 42 -23 79 -46 80 -50 2 -5 8
-9 14 -9 6 0 27 -12 47 -27 75 -58 131 -80 220 -89 30 -3 84 -17 120 -30 36
-14 92 -33 123 -44 32 -10 65 -23 75 -28 10 -5 42 -13 72 -16 29 -4 57 -9 61
-11 5 -3 32 -7 61 -9 30 -3 61 -7 69 -9 22 -6 92 -20 110 -22 8 -1 22 -5 30
-8 39 -14 168 -27 195 -19 17 5 54 8 83 7 30 -2 74 4 99 11 25 8 64 16 87 19
22 3 50 8 61 10 11 2 26 4 33 4 24 2 11 32 -18 42 -35 13 -37 22 -10 49 34 34
60 41 207 54 29 3 65 12 80 19 33 17 130 35 191 36 60 1 102 10 137 27 62 32
152 62 205 68 30 3 75 9 100 13 25 3 51 6 58 6 6 0 12 4 12 9 0 4 9 8 20 8 11
0 20 5 20 12 0 6 3 9 6 5 4 -3 19 0 35 9 16 8 29 12 29 10 0 -8 102 24 140 44
65 33 115 50 160 54 55 6 111 15 120 21 4 2 25 7 47 9 22 3 53 10 69 17 16 6
47 13 69 15 88 10 84 26 -10 44 -36 7 -62 16 -59 21 3 5 9 7 14 4 5 -3 13 2
18 11 8 14 29 17 118 20 60 1 121 7 137 13 15 6 27 9 27 6 0 -7 113 46 170 80
35 21 75 35 110 39 65 8 120 24 120 36 0 4 25 18 55 30 85 35 102 85 38 113
-50 22 -132 35 -163 27 -21 -6 -517 -4 -765 2 -108 3 -191 -3 -247 -18 -26 -6
-49 -10 -51 -7 -7 7 -161 17 -260 16 -67 0 -92 -4 -106 -17 -10 -9 -22 -16
-27 -15 -5 1 -11 0 -14 -1 -14 -5 -51 -10 -113 -14 -66 -5 -137 -29 -137 -47
0 -20 -20 -7 -35 21 -12 24 -22 30 -49 30 -18 0 -36 -3 -39 -7 -4 -3 -17 -7
-29 -9 -13 -1 -36 -5 -51 -8 -16 -3 -39 -1 -51 4 -15 5 -34 2 -61 -10 -44 -20
-74 -13 -82 21 -3 10 -9 19 -14 19 -13 0 -37 41 -43 73 -6 36 -23 57 -46 57
-10 0 -45 13 -79 29 -36 17 -72 27 -88 25 -15 -2 -40 -5 -55 -6 -29 -1 -106
35 -125 59 -7 9 -31 17 -57 18 -25 2 -60 12 -78 24 -68 43 -110 59 -137 51
-41 -11 -61 -4 -105 39 -23 23 -46 41 -51 41 -24 0 -32 40 -30 129 3 84 6 96
28 120 23 23 34 49 40 92 3 21 90 138 103 138 6 1 18 16 26 35 14 28 27 37 74
52 72 22 152 75 185 122 22 31 57 120 58 150 1 4 9 8 18 9 99 9 133 25 164 78
18 30 24 33 52 28 19 -3 56 3 88 14 41 14 80 18 145 17 84 -2 105 -8 141 -43
7 -7 41 -34 75 -58 34 -25 71 -54 82 -64 11 -11 27 -19 35 -20 33 -2 66 3 78
13 8 6 40 8 80 5 66 -6 88 -9 163 -26 19 -4 51 -4 70 0 19 4 53 10 75 13 22 2
63 15 90 27 28 12 68 24 90 26 93 7 141 15 200 31 31 9 85 -3 85 -19 0 -4 -9
-13 -20 -19 -11 -6 -20 -8 -20 -5 0 8 -101 -32 -119 -48 -15 -14 -80 -39 -111
-44 -32 -4 -147 -15 -190 -17 -81 -5 -106 -20 -75 -46 16 -13 138 -18 200 -7
22 4 60 9 83 11 l44 4 -29 -18 c-21 -12 -42 -16 -72 -13 -23 3 -63 0 -89 -6
-26 -6 -60 -13 -76 -15 -41 -7 -42 -12 -7 -30 61 -32 110 -30 185 9 69 35 111
45 104 23 -2 -6 -13 -16 -23 -22 -11 -6 -38 -23 -61 -38 -109 -71 -197 -80
-299 -28 -66 34 -98 36 -103 7 -8 -42 199 -119 298 -110 113 10 137 22 218
110 84 91 100 102 215 143 76 27 77 27 71 6 -10 -33 -26 -60 -63 -104 -19 -23
-44 -64 -56 -92 -12 -29 -39 -72 -61 -97 -55 -65 -164 -173 -173 -173 -14 0
-103 -84 -209 -197 -37 -40 -72 -73 -78 -73 -17 -1 -96 -79 -89 -90 10 -16 18
-13 65 30 25 22 49 40 55 40 5 0 4 -5 -3 -12 -7 -7 -12 -20 -12 -29 0 -37 54
2 110 80 3 4 30 26 62 49 64 47 154 139 175 179 8 15 29 46 48 69 19 23 35 48
35 54 0 19 39 72 90 120 63 61 108 125 121 172 14 54 37 36 32 -24 -2 -24 -6
-68 -8 -98 -2 -30 -11 -75 -20 -100 -9 -25 -19 -60 -21 -78 -5 -39 -41 -127
-78 -192 -14 -25 -35 -64 -46 -87 -27 -55 -46 -65 -128 -61 -37 1 -82 -2 -101
-6 -33 -8 -34 -9 -13 -20 18 -9 148 -13 230 -7 7 1 28 17 47 38 24 27 36 52
45 97 13 68 25 90 83 153 26 28 56 82 88 155 l48 113 -2 128 c-2 78 2 131 8
136 5 5 36 7 69 5 37 -3 69 1 85 9 49 26 106 59 116 68 27 26 37 -15 42 -176
7 -239 6 -321 -7 -395 -18 -97 -17 -90 -7 -125 4 -16 8 -52 8 -80 -1 -69 7
-102 27 -107 33 -9 42 3 42 55 0 29 5 72 11 97 6 25 11 63 10 85 -1 22 7 65
18 96 12 35 16 61 10 71 -17 30 -19 100 -5 142 8 22 13 57 11 76 -9 86 -14
128 -20 155 -4 17 -8 48 -9 70 -1 22 -8 58 -15 79 -16 45 -9 53 65 86 23 10
59 37 80 59 36 40 40 41 93 39 31 -1 76 2 101 7 25 4 52 7 61 7 10 0 34 15 55
34 22 19 42 34 47 34 4 0 7 6 7 14 0 32 32 41 154 44 202 6 224 4 290 -17 34
-11 85 -25 112 -31 108 -23 162 -44 200 -77 21 -19 59 -48 84 -65 25 -18 54
-42 65 -56 11 -13 48 -52 81 -87 59 -61 87 -71 79 -30 -2 11 -4 23 -4 26 -1 3
-15 21 -32 38 -17 18 -42 49 -55 68 -44 65 -28 70 49 17 28 -20 71 -56 93 -80
44 -47 58 -53 67 -30 6 16 -53 80 -182 196 -47 41 -91 82 -100 91 -15 16 -97
68 -182 116 -22 13 -52 25 -66 27 -14 3 -35 11 -47 19 -21 14 -77 34 -112 41
-11 2 -39 9 -63 16 -43 11 -157 6 -293 -13 -39 -6 -56 17 -34 42 15 17 50 21
63 7 2 -2 30 3 61 11 31 8 64 17 72 18 8 2 15 4 15 5 0 1 21 2 47 4 26 2 54 8
61 14 8 7 27 13 43 15 17 2 36 7 44 12 22 14 31 14 190 17 138 3 146 2 176
-20 19 -15 49 -25 80 -27 79 -6 127 -14 174 -27 52 -15 66 -15 101 0 18 7 39
7 65 1 77 -20 111 -26 130 -22 27 5 134 5 234 0 52 -3 97 0 115 7 33 13 82 14
133 2 18 -4 51 -5 73 -1 64 11 33 28 -111 64 -172 42 -357 55 -459 33 -62 -14
-177 -6 -231 15 -14 6 -47 13 -75 17 -71 10 -114 26 -163 60 -32 22 -39 32
-28 38 20 11 185 1 286 -17 33 -6 123 -6 245 1 55 3 186 6 290 8 153 2 202 6
250 21 33 10 66 20 74 21 23 4 31 27 17 49 -7 11 -34 35 -59 53 -40 28 -57 34
-119 39 -95 6 -163 6 -213 -1 -85 -12 -108 -16 -126 -21 -10 -4 -19 -2 -19 4
0 12 82 37 150 46 73 9 85 12 83 21 -1 5 33 8 75 8 147 -4 197 -4 262 0 69 4
146 21 154 35 12 19 -9 49 -45 65 -32 14 -38 21 -29 31 9 11 3 16 -30 25 -23
6 -59 12 -81 12 -21 0 -39 4 -39 9 0 5 6 6 14 3 23 -9 29 16 10 38 -38 41 -70
49 -212 53 -75 3 -150 9 -166 15 -17 5 -44 12 -61 14 -60 9 -140 25 -156 31
-8 3 -42 7 -75 8 -32 1 -60 7 -62 12 -2 6 -10 18 -19 27 -13 14 -13 20 -3 33
11 14 65 18 180 15 325 -8 367 -6 433 24 18 8 42 17 55 21 12 3 22 10 22 15 0
14 -124 49 -192 54 -35 3 -103 9 -153 13 -49 4 -103 6 -120 4 -36 -4 -246 -5
-295 -1 -38 3 -63 17 -54 31 3 5 -6 9 -20 9 -13 0 -26 4 -28 10 -1 5 -49 14
-105 19 -56 5 -106 12 -111 15 -5 3 -24 1 -43 -4 l-34 -10 25 20 c23 18 23 20
5 20 -11 0 -49 3 -85 6 -36 3 -88 6 -117 7 -64 3 -77 13 -35 28 40 14 45 44 6
35 -42 -11 -224 -17 -224 -8 0 5 16 21 35 36 19 16 32 32 29 37 -5 8 -58 4
-74 -6 -8 -5 -76 -14 -142 -20 -60 -4 -70 15 -27 55 17 15 28 33 24 39 -3 6
-10 9 -14 7 -4 -3 -25 -6 -47 -7 -21 -1 -46 -6 -55 -10 -9 -5 -32 -9 -50 -11
-19 -1 -39 -5 -45 -10 -17 -13 -38 17 -26 38 7 12 6 23 -1 35 -8 14 -16 15
-46 7 -20 -6 -44 -19 -54 -29 -10 -10 -30 -22 -45 -25 -15 -4 -32 -11 -38 -15
-6 -5 -27 -11 -47 -14 -39 -7 -36 -11 -53 72 l-4 22 -56 -20 c-31 -10 -63 -24
-70 -30 -21 -17 -183 -26 -256 -14 -20 4 -53 2 -74 -4 -21 -6 -40 -8 -42 -6
-3 2 9 20 27 40 17 20 31 38 31 40 0 8 -72 4 -110 -6z m2840 -764 c0 -7 -30
-13 -34 -7 -3 4 4 9 15 9 10 1 19 0 19 -2z"/>
</g>
</svg>
